<mxfile host="app.diagrams.net" modified="2023-09-15T02:44:03.793Z" agent="Mozilla/5.0 (Windows NT 10.0; Win64; x64) AppleWebKit/537.36 (KHTML, like Gecko) Chrome/116.0.0.0 Safari/537.36" etag="-cyhyyZCnbsTmMWjjssX" version="21.7.5" type="github">
  <diagram name="Page-1" id="e7e014a7-5840-1c2e-5031-d8a46d1fe8dd">
    <mxGraphModel dx="880" dy="446" grid="1" gridSize="10" guides="1" tooltips="1" connect="1" arrows="1" fold="1" page="1" pageScale="1" pageWidth="1169" pageHeight="826" background="none" math="0" shadow="0">
      <root>
        <mxCell id="0" />
        <mxCell id="1" parent="0" />
        <mxCell id="wu12lZ48jq8rXmISXjIT-41" value="" style="whiteSpace=wrap;html=1;aspect=fixed;" vertex="1" parent="1">
          <mxGeometry x="90" y="630" width="880" height="880" as="geometry" />
        </mxCell>
        <mxCell id="wu12lZ48jq8rXmISXjIT-42" value="API" style="ellipse;whiteSpace=wrap;html=1;" vertex="1" parent="1">
          <mxGeometry x="330" y="844" width="110" height="74" as="geometry" />
        </mxCell>
        <mxCell id="wu12lZ48jq8rXmISXjIT-43" value="uSER&lt;br&gt;" style="shape=umlActor;verticalLabelPosition=bottom;verticalAlign=top;html=1;outlineConnect=0;" vertex="1" parent="1">
          <mxGeometry x="136" y="840" width="70" height="110" as="geometry" />
        </mxCell>
        <mxCell id="wu12lZ48jq8rXmISXjIT-45" value="CREATE/ADD&lt;br&gt;OBJECT" style="ellipse;whiteSpace=wrap;html=1;" vertex="1" parent="1">
          <mxGeometry x="460" y="720" width="110" height="74" as="geometry" />
        </mxCell>
        <mxCell id="wu12lZ48jq8rXmISXjIT-46" value="RETRIVE/FIND&lt;br style=&quot;border-color: var(--border-color);&quot;&gt;OBJECT" style="ellipse;whiteSpace=wrap;html=1;" vertex="1" parent="1">
          <mxGeometry x="530" y="810" width="110" height="74" as="geometry" />
        </mxCell>
        <mxCell id="wu12lZ48jq8rXmISXjIT-47" value="UPDATE/EDIT&lt;br style=&quot;border-color: var(--border-color);&quot;&gt;OBJECT" style="ellipse;whiteSpace=wrap;html=1;" vertex="1" parent="1">
          <mxGeometry x="530" y="916" width="110" height="74" as="geometry" />
        </mxCell>
        <mxCell id="wu12lZ48jq8rXmISXjIT-48" value="DELETE&lt;br style=&quot;border-color: var(--border-color);&quot;&gt;OBJECT" style="ellipse;whiteSpace=wrap;html=1;" vertex="1" parent="1">
          <mxGeometry x="450" y="1010" width="110" height="74" as="geometry" />
        </mxCell>
        <mxCell id="wu12lZ48jq8rXmISXjIT-49" value="FILTER&lt;br style=&quot;border-color: var(--border-color);&quot;&gt;OBJECT" style="ellipse;whiteSpace=wrap;html=1;" vertex="1" parent="1">
          <mxGeometry x="720" y="800" width="110" height="74" as="geometry" />
        </mxCell>
        <mxCell id="wu12lZ48jq8rXmISXjIT-50" value="SEARCH&lt;br style=&quot;border-color: var(--border-color);&quot;&gt;OBJECT" style="ellipse;whiteSpace=wrap;html=1;" vertex="1" parent="1">
          <mxGeometry x="720" y="910" width="110" height="74" as="geometry" />
        </mxCell>
        <mxCell id="wu12lZ48jq8rXmISXjIT-52" value="" style="endArrow=classic;html=1;rounded=0;" edge="1" parent="1">
          <mxGeometry relative="1" as="geometry">
            <mxPoint x="170" y="890" as="sourcePoint" />
            <mxPoint x="330" y="890" as="targetPoint" />
            <Array as="points" />
          </mxGeometry>
        </mxCell>
        <mxCell id="wu12lZ48jq8rXmISXjIT-59" value="" style="endArrow=classic;html=1;rounded=0;dashed=1;" edge="1" parent="1" target="wu12lZ48jq8rXmISXjIT-49">
          <mxGeometry width="50" height="50" relative="1" as="geometry">
            <mxPoint x="630" y="860" as="sourcePoint" />
            <mxPoint x="680" y="810" as="targetPoint" />
          </mxGeometry>
        </mxCell>
        <mxCell id="wu12lZ48jq8rXmISXjIT-60" value="" style="endArrow=classic;html=1;rounded=0;dashed=1;exitX=1;exitY=1;exitDx=0;exitDy=0;" edge="1" parent="1" source="wu12lZ48jq8rXmISXjIT-46" target="wu12lZ48jq8rXmISXjIT-50">
          <mxGeometry width="50" height="50" relative="1" as="geometry">
            <mxPoint x="640" y="870" as="sourcePoint" />
            <mxPoint x="731" y="855" as="targetPoint" />
          </mxGeometry>
        </mxCell>
        <mxCell id="wu12lZ48jq8rXmISXjIT-68" value="" style="endArrow=classic;html=1;rounded=0;" edge="1" parent="1" source="wu12lZ48jq8rXmISXjIT-42" target="wu12lZ48jq8rXmISXjIT-45">
          <mxGeometry width="50" height="50" relative="1" as="geometry">
            <mxPoint x="420" y="900" as="sourcePoint" />
            <mxPoint x="470" y="850" as="targetPoint" />
          </mxGeometry>
        </mxCell>
        <mxCell id="wu12lZ48jq8rXmISXjIT-69" value="" style="endArrow=classic;html=1;rounded=0;entryX=0;entryY=0.5;entryDx=0;entryDy=0;" edge="1" parent="1" target="wu12lZ48jq8rXmISXjIT-46">
          <mxGeometry width="50" height="50" relative="1" as="geometry">
            <mxPoint x="427" y="861" as="sourcePoint" />
            <mxPoint x="493" y="797" as="targetPoint" />
          </mxGeometry>
        </mxCell>
        <mxCell id="wu12lZ48jq8rXmISXjIT-70" value="" style="endArrow=classic;html=1;rounded=0;exitX=1;exitY=0.5;exitDx=0;exitDy=0;" edge="1" parent="1" source="wu12lZ48jq8rXmISXjIT-42" target="wu12lZ48jq8rXmISXjIT-47">
          <mxGeometry width="50" height="50" relative="1" as="geometry">
            <mxPoint x="437" y="871" as="sourcePoint" />
            <mxPoint x="540" y="857" as="targetPoint" />
          </mxGeometry>
        </mxCell>
        <mxCell id="wu12lZ48jq8rXmISXjIT-71" value="" style="endArrow=classic;html=1;rounded=0;exitX=1;exitY=1;exitDx=0;exitDy=0;" edge="1" parent="1" source="wu12lZ48jq8rXmISXjIT-42" target="wu12lZ48jq8rXmISXjIT-48">
          <mxGeometry width="50" height="50" relative="1" as="geometry">
            <mxPoint x="447" y="881" as="sourcePoint" />
            <mxPoint x="553" y="939" as="targetPoint" />
          </mxGeometry>
        </mxCell>
      </root>
    </mxGraphModel>
  </diagram>
</mxfile>
